<svg width="200" height="200" viewBox="0 0 200 200" fill="none" xmlns="http://www.w3.org/2000/svg">
<path d="M50 76.5365C50 71.9341 53.731 68.2031 58.3333 68.2031H141.667C146.269 68.2031 150 71.9341 150 76.5365V147.37C150 151.972 146.269 155.703 141.667 155.703H58.3333C53.731 155.703 50 151.972 50 147.37V76.5365Z" fill="#C589F4"/>
<mask id="mask0_1548_21277" style="mask-type:alpha" maskUnits="userSpaceOnUse" x="50" y="68" width="100" height="88">
<path d="M50 76.5365C50 71.9341 53.731 68.2031 58.3333 68.2031H141.667C146.269 68.2031 150 71.9341 150 76.5365V147.37C150 151.972 146.269 155.703 141.667 155.703H58.3333C53.731 155.703 50 151.972 50 147.37V76.5365Z" fill="#C589F4"/>
</mask>
<g mask="url(#mask0_1548_21277)">
<rect x="116.484" y="16.1211" width="12.5" height="150" transform="rotate(45 116.484 16.1211)" fill="#EDB1FF"/>
<rect x="134.164" y="33.8047" width="12.5" height="150" transform="rotate(45 134.164 33.8047)" fill="#EDB1FF"/>
<rect x="151.84" y="51.4805" width="12.5" height="150" transform="rotate(45 151.84 51.4805)" fill="#EDB1FF"/>
<rect x="169.52" y="69.1562" width="12.5" height="150" transform="rotate(45 169.52 69.1562)" fill="#EDB1FF"/>
<rect x="187.195" y="86.832" width="12.5" height="150" transform="rotate(45 187.195 86.832)" fill="#EDB1FF"/>
</g>
<path d="M106.25 68.207L106.25 61.957L93.75 61.957L93.75 68.207L100 68.207L106.25 68.207ZM100 68.207L93.75 68.207L93.75 155.707L100 155.707L106.25 155.707L106.25 68.207L100 68.207Z" fill="#97FF28"/>
<path d="M150.008 111.957L50.0078 111.957" stroke="#97FF28" stroke-width="12.5"/>
<path d="M68.1389 48.0398C73.8242 42.3546 83.0778 42.354 88.7631 48.0391L99.0755 58.3516L88.7631 68.664C83.0778 74.3491 73.8242 74.3485 68.1389 68.6633C62.4539 62.978 62.4539 53.7251 68.1389 48.0398Z" stroke="#97FF28" stroke-width="12.5"/>
<path d="M131.212 48.0413C125.625 42.4542 116.012 41.1445 109.852 47.3045L99.5394 57.6169L110.588 68.6655C116.175 74.2526 125.789 75.5619 131.949 69.4016C138.109 63.2413 136.799 53.6284 131.212 48.0413Z" stroke="#97FF28" stroke-width="12.5"/>
</svg>